<?xml version="1.0" encoding="UTF-8" standalone="no"?><!DOCTYPE svg PUBLIC "-//W3C//DTD SVG 1.1//EN" "http://www.w3.org/Graphics/SVG/1.1/DTD/svg11.dtd"><svg width="100%" height="100%" viewBox="0 0 600 600" version="1.1" xmlns="http://www.w3.org/2000/svg" xmlns:xlink="http://www.w3.org/1999/xlink" xml:space="preserve" xmlns:serif="http://www.serif.com/" style="fill-rule:evenodd;clip-rule:evenodd;stroke-linejoin:round;stroke-miterlimit:2;"><rect x="300" y="0" width="300" height="300" style="fill:#0080d8;"/><rect x="0" y="300" width="300" height="300" style="fill:#0080d8;"/><rect x="0" y="-0" width="300" height="300" style="fill:#f1f2f3;"/><rect x="300" y="300.391" width="300" height="300" style="fill:#f1f2f3;"/><path d="M398.077,453.412l-0,113.806c-0,10.037 -8.136,18.173 -18.173,18.173l-46.731,0c-10.037,0 -18.173,-8.136 -18.173,-18.173l0,-233.654c-0,-10.037 8.136,-18.173 18.173,-18.173l42.058,0c5.157,0 10.071,2.191 13.517,6.027l113.175,125.952l0,-113.806c0,-10.037 8.136,-18.173 18.173,-18.173l46.731,0c10.037,0 18.173,8.136 18.173,18.173l-0,233.654c0,10.037 -8.136,18.173 -18.173,18.173l-42.058,0c-5.157,0 -10.071,-2.191 -13.517,-6.027l-113.175,-125.952Z" style="fill:#0080d8;stroke:#f1f2f3;stroke-width:1px;"/><path d="M98.077,153.412l-0,113.806c-0,10.037 -8.136,18.173 -18.173,18.173l-46.731,0c-10.037,0 -18.173,-8.136 -18.173,-18.173l-0,-233.654c-0,-10.037 8.136,-18.173 18.173,-18.173l42.058,0c5.157,0 10.071,2.191 13.517,6.027l113.175,125.952l0,-113.806c0,-10.037 8.136,-18.173 18.173,-18.173l46.731,0c10.037,0 18.173,8.136 18.173,18.173l-0,233.654c0,10.037 -8.136,18.173 -18.173,18.173l-42.058,0c-5.157,0 -10.071,-2.191 -13.517,-6.027l-113.175,-125.952Z" style="fill:#0080d8;stroke:#f1f2f3;stroke-width:1px;"/><path d="M450,15.391c-77.885,0 -135,57.116 -135,135c0,77.885 57.115,135 135,135c77.885,0 135,-57.115 135,-135c0,-77.884 -57.115,-135 -135,-135Zm0,190.967c-30.229,0 -51.474,-24.058 -51.474,-55.967c0,-31.909 21.245,-55.967 51.474,-55.967c30.229,0 51.474,24.058 51.474,55.967c-0,31.909 -21.245,55.967 -51.474,55.967Z" style="fill:#f1f2f3;stroke:#0080d8;stroke-width:1px;"/><path d="M150,315.391c-77.885,0 -135,57.116 -135,135c0,77.885 57.115,135 135,135c77.885,0 135,-57.115 135,-135c0,-77.884 -57.115,-135 -135,-135Zm0,190.967c-30.229,0 -51.474,-24.058 -51.474,-55.967c0,-31.909 21.245,-55.967 51.474,-55.967c30.229,0 51.474,24.058 51.474,55.967c-0,31.909 -21.245,55.967 -51.474,55.967Z" style="fill:#f1f2f3;stroke:#0080d8;stroke-width:1px;"/></svg>