<svg xmlns="http://www.w3.org/2000/svg" xml:space="preserve" fill-rule="evenodd" stroke-linejoin="round" stroke-miterlimit="2" clip-rule="evenodd" viewBox="0 0 107 139">
  <g fill-rule="nonzero">
    <path d="M57.5 137.98c10.62 1.13 28.13-1.96 32.66-5.77 2.77-2.33 2.87-2.73 2.7-10.56-.19-9.33.71-13.65 2.85-13.65.82 0 3.08-1.59 5.02-3.53 3.28-3.28 3.49-3.86 2.92-8-.514-3.021-1.447-5.956-2.77-8.72-2.7-5.29-10.06-14.96-13.4-17.59-2.66-2.08-2.6-2.64 1.02-9.18 1.68-3.05 2.12-9.8 1.06-16.23L88.77 40l5.36-.01c6.2-.02 9.42-1.43 11.6-5.09 4.17-6.99-3.59-17.04-19.35-25.11C71.07 1.96 66.03.54 53.5.52 43.66.51 41.92.79 37 3.14 15.59 13.4 6.56 27.05 6.65 48.97c.04 7.05.61 11.15 2.2 15.75 1.18 3.41 2.15 6.61 2.15 7.11 0 .49-1.41 2.64-3.13 4.79-9.02 11.2-10.54 24.85-3.06 27.5.59.22 1.07 3.24 1.08 6.88.06 15.16.23 17.33 1.61 19.99 1.95 3.79 6.18 5.14 18 5.74 7.25.36 11.39.09 15.05-1 4.52-1.35 5.35-1.34 8 .05 1.62.86 5.65 1.85 8.95 2.2"/>
    <path fill="#965323" d="M12.19 128.1c-.304-1.002.13-1.23 1.93-.69 5.02 1.5 15.61 2.27 20.88 1.52 7.52-1.07 9-1.08 9-.03 0 .5-2.751 1.254-6.33 2-15.526 3.235-24.861-.762-25.48-2.8Zm35.81.45c.033-1.817 1.15-2 2.78-.37.65.65 5.06 1.38 9.82 1.63 8.19.486 16.395-.642 24.15-3.32 3.65-1.2 4.25-1.2 4.25.02 0 2.01-3.063 3.556-11.1 4.94-22.575 3.889-29.942-.562-29.9-2.9Z"/>
    <path fill="#121b32" d="M53.25 127c-3.878-1.623-2.48-3 3.09-3 8.38 0 21.66-2.07 26.46-4.13 5.34-2.29 5.2-2.29 5.2-.02 0 2.92-4.082 5.614-9.28 6.44-5.84.928-22.011 2.157-25.47.71Zm-10.02-1.83c-1.89 1.88-21.9 2.18-26.72.38-3.71-1.37-6.51-3.84-6.51-5.74 0-1.14 1.16-1.02 5.91.66 3.62 1.28 20.46 3.53 26.4 3.53 1.6 0 1.81.27.91 1.17"/>
    <path fill="#410e0c" d="M65.261 102.302c-2.214.185-5.951.708-10.341.708-7.68 0-7.95-.08-6.92-2 .88-1.64 2.09-2.01 6.79-2.01 3.13 0 8.38-.44 11.63-.97 4.25-.7 6.32-.65 7.3.17 1.9 1.57.63 2.42-5.52 3.7 0 0-1.954.32-2.939.402Z"/>
    <path fill="#cdbd39" d="M25 100.5c0-1.04 1.04-1.5 3.4-1.5 2.09 0 3.6.57 3.96 1.5.45 1.18-.27 1.5-3.4 1.5-2.85 0-3.96-.42-3.96-1.5Z"/>
    <path fill="#0080d8" d="M72.068 118.611c-4.429.566-18.548 1.059-18.548 1.059-21.06.18-26.98-.34-35.38-3.12-5.57-1.85-8.15-4.56-8.12-8.53.02-4.33 1.32-5.44 4.9-4.2 1.77.62 4.07.75 5.29.3 1.18-.43 4.2-.36 6.72.17 2.51.53 11.99 1.01 21.07 1.08 13.51.1 17.63-.21 22.74-1.75l6.24-1.88 5.76 2.88c2.071 1.021 4.131 2.064 6.18 3.13.23.14-.19 1.39-.93 2.78-.8 1.48-5.008 4.246-7.9 5.74-2.965 1.532-8.022 2.341-8.022 2.341ZM5.04 98.55c-1.625-2.149-.72-6.78 2.1-10.74 1.87-2.62 2.28-2.8 3.08-1.37.51.9.58 3.09.18 4.86-.41 1.76-.76 4.198-.82 5.7-.14 3.532-3.194 3.33-4.54 1.55Zm91.42 3.11c-1.156.788-2.503 1.251-3.9 1.34-3.41 0-13.75-5.4-20.09-10.5-8.85-7.12-8.47-6.86-8.47-5.7 0 .59 1.18 2.46 2.62 4.17 1.44 1.72 2.37 3.39 2.04 3.7-.95.96-8.79 2.25-13.9 2.3-4.51.04-4.8-.13-6.25-3.58-2.15-5.15-1.92-6.25 1.69-8.18 5.99-3.18 13.49-11.06 15.95-16.73l2.35-5.44h5c5.85 0 9.183.755 7.622 3.196-.701 1.097-.702 2.684 3.748 8.164 9.47 11.68 12.36 16.46 12.92 21.4.4 3.62.14 4.79-1.33 5.87M83.38 38.75c.56 3.2.52 3.25-3.15 3.1-8.62-.35-8.97-.55-10.27-6.16C67.1 23.44 60.9 14.6 52.04 10.18c-3.26-1.63-5.65-3.24-5.32-3.58.34-.33 3.52-.6 7.07-.6C70.23 6 102 21.48 102 29.51c0 4.18-3.09 5.7-9.97 4.92-5.74-.65-6.37-.97-8.69-4.48-1.38-2.09-3.14-4.03-3.93-4.33-1.84-.71-1.82-.63 1 5.04 1.32 2.67 2.67 6.31 2.97 8.1"/>
    <g fill="#11d1d1">
      <path d="M45.21 98.43c-.92 2.02-1.89 2.57-4.53 2.57-6.57 0-9-6.95-4.03-11.55L39.29 87h-2.64C34.4 87 34 86.57 34 84.09c0-2.94 4.7-8.09 7.38-8.08 3.39 0 4.64 5.18 2.56 10.63-.82 2.19-.68 3.44.7 6 1.43 2.65 1.53 3.7.57 5.8M31.5 96.51l-3.25.31c-2.73.27-3.41-.11-4.25-2.32-2.04-5.37-.84-11.06 2.52-11.9 4.68-1.18 5.59.08 5.27 7.28"/>
      <path d="M22.58 98.88c-.724 1.135-3.385 1.814-5.73 1.38-2.51-.465-4.15-5.33-2.87-8.69.78-2.05.74-3.71-.16-6.17-2.58-7.14 2.38-12 7.1-6.97 2.13 2.26 2.23 2.79 1.1 5.54-.7 1.67-.975 2.252-1.606 2.813-.579.516-2.611.268-2.611.268s2.345 1.761 2.624 2.504c.724 1.923 2.867 8.205 2.153 9.325Z"/>
    </g>
    <path fill="#e0e0e0" d="M35.13 76.5c-4.77 4.31-7.31 4.4-10.87.4-1.557-1.744-3.367-3.244-5.37-4.45-3.52-1.83-6.84-9.87-7.52-18.23l-.56-6.72 2.08 3.25C17.72 58.3 25.5 52 26.65 39.61c.9-9.76-4.81-15.63-10.25-10.53-1.32 1.25-2.4 1.94-2.4 1.55 0-2.26 4.47-8.8 8.73-12.8 8.1-7.56 19.39-8.69 28.62-2.83 11.08 7.03 16.62 22.88 13.75 39.36-1.62 9.29-4.29 14.89-9.67 20.27l-4.66 4.66-2.46-3.14c-3.48-4.46-7.98-4.34-13.18.36"/>
    <path fill="#121212" d="M27.31 66.62c-2.388 1.364-2.702 5.696-1.3 8.4.684 1.319 1.9 2 3.31 1.8 1.7-.24 2.25-1.09 2.47-3.81.39-4.61-1.95-7.94-4.48-6.39ZM38.7 53.98C40.12 55.1 42.14 56 43.2 56c10.87 0 13.98-22.24 3.84-27.47-10.73-5.54-18.3 17.62-8.33 25.46"/>
    <path fill="#965323" d="M84.9 57.86c-1.17 3.36-.86 3.29-10.78 2.42l-4.37-.4.62-4.58c.35-2.51.63-6.11.63-8v-3.44l5.75.7c8.07.98 9.25 1.79 9.25 6.34 0 2.09-.49 5.23-1.09 6.96"/>
  </g>
</svg>
